<?xml version="1.0" encoding="UTF-8" standalone="no"?>
<!-- Created with Inkscape (http://www.inkscape.org/) -->

<svg
   xmlns:dc="http://purl.org/dc/elements/1.1/"
   xmlns:cc="http://creativecommons.org/ns#"
   xmlns:rdf="http://www.w3.org/1999/02/22-rdf-syntax-ns#"
   xmlns:svg="http://www.w3.org/2000/svg"
   xmlns="http://www.w3.org/2000/svg"
   xmlns:sodipodi="http://sodipodi.sourceforge.net/DTD/sodipodi-0.dtd"
   xmlns:inkscape="http://www.inkscape.org/namespaces/inkscape"
   width="744.09448819"
   height="1052.3622047"
   id="svg3140"
   version="1.1"
   inkscape:version="0.48.4 r9939"
   sodipodi:docname="head_vectorized_2.svg">
  <defs
     id="defs3142">
    <inkscape:path-effect
       effect="skeletal"
       id="path-effect3562"
       is_visible="true"
       pattern="M 0,0 1,0"
       copytype="single_stretched"
       prop_scale="1"
       scale_y_rel="false"
       spacing="0"
       normal_offset="0"
       tang_offset="0"
       prop_units="false"
       vertical_pattern="false"
       fuse_tolerance="0" />
  </defs>
  <sodipodi:namedview
     id="base"
     pagecolor="#ffffff"
     bordercolor="#666666"
     borderopacity="1.0"
     inkscape:pageopacity="0.0"
     inkscape:pageshadow="2"
     inkscape:zoom="0.98994949"
     inkscape:cx="502.16522"
     inkscape:cy="428.62499"
     inkscape:document-units="px"
     inkscape:current-layer="layer1"
     showgrid="false"
     inkscape:window-width="1920"
     inkscape:window-height="1056"
     inkscape:window-x="0"
     inkscape:window-y="24"
     inkscape:window-maximized="1" />
  <metadata
     id="metadata3145">
    <rdf:RDF>
      <cc:Work
         rdf:about="">
        <dc:format>image/svg+xml</dc:format>
        <dc:type
           rdf:resource="http://purl.org/dc/dcmitype/StillImage" />
        <dc:title></dc:title>
      </cc:Work>
    </rdf:RDF>
  </metadata>
  <g
     inkscape:label="Layer 1"
     inkscape:groupmode="layer"
     id="layer1">
    <path
       id="path3558"
       style="fill:#070707"
       d="m 402.52673,1027.715 c 1.15129,-1.3403 4.50255,-4.0305 7.44726,-5.9782 2.9447,-1.9477 6.2772,-4.8594 7.4056,-6.4704 1.12838,-1.611 3.11496,-2.9323 4.41462,-2.9362 1.29968,0 4.87496,-1.5543 7.9451,-3.4453 3.29088,-2.0269 7.75517,-3.4559 10.87644,-3.4816 4.17287,-0.034 5.2075,-0.539 4.88431,-2.3825 -0.27354,-1.5603 1.76196,-3.50575 6.11363,-5.84327 3.58803,-1.92733 7.18969,-4.96591 8.00367,-6.75244 0.814,-1.7865 3.21619,-3.9377 5.3382,-4.78043 2.12202,-0.84274 5.49708,-2.38689 7.50009,-3.43148 2.00303,-1.04456 3.98561,-1.55547 4.40575,-1.13531 1.20591,1.2059 9.01717,-3.31304 11.25877,-6.51339 1.11751,-1.59546 5.39452,-5.74838 9.50446,-9.22869 18.08638,-15.31564 21.07102,-18.18311 24.05255,-23.10826 3.30268,-5.45569 16.31237,-15.69243 21.10574,-16.60718 1.63246,-0.31154 2.97345,-1.85974 3.24145,-3.74236 0.25141,-1.76605 1.37714,-3.56404 2.5016,-3.99552 1.12448,-0.43151 3.24696,-3.14159 4.71662,-6.0224 1.46969,-2.8808 3.64087,-5.60957 4.82488,-6.06392 1.18399,-0.45432 2.15272,-1.87975 2.15272,-3.16757 0,-1.28784 2.25997,-5.7463 5.02216,-9.90771 3.40942,-5.13653 4.76962,-8.53184 4.23577,-10.57329 -0.51121,-1.9549 0.23787,-4.09733 2.14082,-6.12294 2.58374,-2.75026 2.75659,-3.788 1.47311,-8.84446 -1.11508,-4.39306 -1.0145,-6.5759 0.43141,-9.36287 1.03702,-1.99885 1.54101,-5.35662 1.11999,-7.46173 -0.58101,-2.90504 -0.0826,-4.19295 2.06822,-5.34401 4.05094,-2.16799 7.42288,-9.49748 8.05029,-17.49868 0.42647,-5.43845 1.39738,-7.67837 4.59374,-10.5978 3.10747,-2.83824 3.88758,-4.5672 3.34391,-7.41118 -0.49281,-2.57803 0.3426,-5.09164 2.73915,-8.24168 1.89652,-2.49279 5.4715,-8.73383 7.94438,-13.86899 2.47289,-5.13516 5.39053,-10.0789 6.48366,-10.98612 1.09315,-0.90722 1.98753,-3.0912 1.98753,-4.85329 0,-5.02048 1.50316,-7.72861 5.03523,-9.07149 1.79246,-0.68151 4.1484,-3.36765 5.23541,-5.96921 1.087,-2.60156 3.87391,-7.34961 6.19315,-10.55121 2.75384,-3.80156 4.55682,-8.35066 5.19689,-13.11226 0.53905,-4.01014 1.45364,-7.91915 2.03237,-8.68668 0.57876,-0.76753 2.1613,-8.30333 3.51681,-16.7462 1.3555,-8.4429 3.33599,-18.17663 4.4011,-21.63054 5.76262,-18.68687 7.26726,-35.73168 7.20671,-81.63775 -0.076,-57.66789 1.70156,-123.28081 3.78089,-139.55175 0.29425,-2.30261 1.11124,-8.66929 1.81555,-14.14816 0.7043,-5.47888 1.79273,-10.79033 2.41873,-11.80322 1.30583,-2.11286 1.04617,-51.06833 -0.28227,-53.21778 -0.48267,-0.78097 -1.72216,-5.89477 -2.75441,-11.36402 -3.55677,-18.84492 -4.36828,-21.89373 -6.46491,-24.28816 -1.15684,-1.32117 -2.45459,-4.28607 -2.88388,-6.58869 -2.32073,-12.44749 -4.70374,-17.44985 -11.26542,-23.64794 -4.03346,-3.80996 -8.0343,-6.35568 -9.98855,-6.35568 -1.79303,0 -3.5958,-0.54324 -4.00615,-1.2072 -0.41035,-0.66396 -3.26266,-1.54476 -6.33847,-1.9573 -3.07579,-0.41255 -8.27197,-1.97711 -11.54704,-3.47677 -12.46247,-5.70664 -37.05255,-10.64794 -54.10002,-10.87124 -27.16905,-0.35589 -56.22524,-2.05002 -62.40055,-3.63829 -8.13041,-2.0911 -26.4297,0.67498 -38.07671,5.75559 -4.98897,2.17629 -11.04977,4.69706 -13.46844,5.6017 -2.41868,0.90466 -5.82506,3.1643 -7.56973,5.02141 -1.74469,1.85713 -4.53616,3.37658 -6.20328,3.37658 -3.73126,0 -11.49509,3.65244 -15.5674,7.32358 -3.05622,2.75515 -6.03426,2.34788 -6.03426,-0.82522 0,-0.94052 1.88395,-2.82291 4.18656,-4.1831 4.39641,-2.59702 5.18707,-4.3232 2.68771,-5.86789 -0.82434,-0.50948 -2.90577,0.39543 -4.62536,2.01091 -3.64232,3.42179 -7.13261,3.92215 -5.88701,0.84397 0.46589,-1.1513 1.22825,-3.03525 1.69413,-4.18655 1.15186,-2.8465 -0.6603,-2.62211 -6.22563,0.77087 -4.38719,2.6747 -4.79053,2.70368 -6.42992,0.46168 -1.62886,-2.22757 -2.21445,-2.23885 -8.51662,-0.16408 -7.38808,2.43225 -8.98076,2.14414 -8.98076,-1.62459 0,-3.23386 -5.65988,-5.87433 -8.81133,-4.11069 -2.48608,1.39129 -2.65931,1.1282 -2.89925,-4.40406 -0.11931,-2.75081 -0.98951,-3.58475 -4.11399,-3.94244 -3.39535,-0.38866 -3.84414,-0.92584 -3.13479,-3.75213 1.09129,-4.34802 -1.46212,-5.76037 -4.85804,-2.6871 -2.07455,1.87745 -3.44261,2.1329 -5.84301,1.09106 -1.72383,-0.7482 -5.17519,-1.16946 -7.66969,-0.93612 -3.4087,0.31884 -4.53543,-0.13202 -4.53543,-1.81486 0,-1.56626 -0.85496,-2.01552 -2.84519,-1.49507 -1.73238,0.45303 -3.77919,-0.25525 -5.23319,-1.8109 -1.96293,-2.10015 -3.44977,-2.36007 -8.35308,-1.46018 -4.55573,0.83611 -7.92544,0.41716 -14.26237,-1.77324 -7.101,-2.45448 -8.78716,-2.60585 -11.6947,-1.04978 -1.86858,1.00003 -4.03463,1.4244 -4.81349,0.94305 -0.77883,-0.48136 -2.29481,0.005 -3.36883,1.07757 -1.43918,1.43917 -5.87327,1.93485 -16.85871,1.88464 -8.19828,-0.0375 -14.90595,-0.59645 -14.90595,-1.24217 0,-0.64574 -0.94199,-1.17405 -2.09328,-1.17405 -1.15131,0 -2.09328,0.62797 -2.09328,1.39552 0,0.76753 0.94197,1.39551 2.09328,1.39551 1.15129,0 2.09328,0.62799 2.09328,1.39552 0,1.79867 -3.21949,1.80438 -5.01497,0.008 -2.01112,-2.01111 -23.55877,-4.64341 -29.25808,-3.57423 -3.73033,0.69983 -5.69203,2.26595 -8.48401,6.77324 -1.99742,3.22463 -5.04502,7.43291 -6.77239,9.35175 -1.72738,1.91883 -3.57734,5.33444 -4.11099,7.59024 -0.53367,2.25577 -2.07062,5.70968 -3.41544,7.67535 -3.05711,4.46837 -7.71671,29.27573 -6.63837,35.34194 0.51629,2.90432 0.0724,5.48193 -1.24396,7.22428 -1.12565,1.48988 -2.04664,4.12175 -2.04664,5.84859 0,4.74289 -1.98145,5.01932 -5.82499,0.81265 -3.29506,-3.60638 -4.89114,-7.6812 -8.12311,-20.73841 -1.3401,-5.41403 -0.54184,-15.19022 2.23385,-27.35732 0.64399,-2.82288 0.34111,-3.83768 -1.14545,-3.83768 -2.54534,0 -10.8641,12.66533 -10.8641,16.54063 0,1.59131 -1.28425,6.15151 -2.85391,10.13376 -2.27071,5.76081 -2.56122,8.08012 -1.4216,11.34922 1.26999,3.64311 0.97295,4.56814 -2.62081,8.1619 -4.3245,4.3245 -10.79673,5.45058 -12.08169,2.10205 -0.41179,-1.07307 -0.86306,-5.31196 -1.00284,-9.41973 -0.21937,-6.44683 -0.63602,-7.47115 -3.04517,-7.48674 -2.40839,-0.0156 -2.79103,-0.95443 -2.79103,-6.84788 0,-12.59935 -5.60883,-8.91713 -6.02008,3.95223 -0.15246,4.7706 -1.03849,7.6183 -2.91397,9.36558 -1.69374,1.57797 -2.41403,3.58469 -1.93887,5.40175 0.44315,1.69461 -0.23916,3.99079 -1.64869,5.5483 -1.32262,1.46148 -2.07808,3.18577 -1.67881,3.8318 1.12147,1.81459 -2.68584,18.3677 -4.83998,21.04287 -1.05403,1.30899 -3.03514,4.59801 -4.40247,7.30893 -2.22084,4.40314 -2.27582,5.44523 -0.51549,9.76861 1.66447,4.08789 1.69658,7.33264 0.20674,20.88813 -0.97011,8.82665 -1.52189,16.45272 -1.22616,16.94685 0.29572,0.4941 -0.48553,3.32003 -1.73612,6.27982 -2.186346,5.17444 -3.453211,13.40207 -3.391919,22.02872 0.01591,2.24818 -0.561166,4.79878 -1.282536,5.66798 -0.721357,0.8692 -1.681794,12.21739 -2.134291,25.21823 -1.029265,29.57271 -1.253175,32.91038 -2.381548,35.4998 -0.856039,1.96447 -2.442952,13.94581 -2.356638,17.79283 0.02149,0.95942 0.03294,3.78535 0.02525,6.27984 -0.0069,2.49448 -0.01855,6.64015 -0.02428,9.21257 -0.0057,2.57243 -0.591379,5.39835 -1.30142,6.27983 -0.710052,0.88147 -1.746991,4.42861 -2.304319,7.88252 -0.557327,3.4539 -1.552694,6.95095 -2.211937,7.77118 -1.924488,2.39455 -3.219807,14.14203 -3.29772,29.90779 -0.04326,8.76918 -0.632769,14.66478 -1.46793,14.68245 -2.200996,0.0466 -7.702713,-8.77904 -13.324861,-21.37515 -4.930852,-11.04685 -11.039227,-19.82161 -13.798764,-19.82161 -1.580857,0 -5.67098,3.97135 -5.67098,5.5063 0,0.61621 0.941975,3.79022 2.093276,7.05337 1.151303,3.26314 2.093277,7.79805 2.093277,10.07762 0,6.02822 4.021729,11.88898 9.698023,14.13273 3.592328,1.41995 6.873733,4.7611 11.932497,12.14968 3.837673,5.60513 8.129363,10.34501 9.537078,10.53308 3.593081,0.48006 6.377961,4.64057 6.676323,9.97421 0.139551,2.49448 0.316503,5.26809 0.393256,6.16354 0.333209,3.88744 -3.413435,2.31516 -5.312218,-2.22926 -1.312582,-3.14144 -3.025481,-4.9809 -4.638212,-4.9809 -1.406374,0 -6.23037,-3.71207 -10.720002,-8.24904 -6.985249,-7.05891 -8.031035,-8.77473 -7.248512,-11.89256 1.112311,-4.43176 -1.876078,-6.09302 -6.868597,-3.81828 -1.842475,0.83947 -3.687543,0.98013 -4.100156,0.31252 -1.003489,-1.62369 -15.94595,-6.27342 -16.946145,-5.27324 -0.719181,0.71919 0.700591,1.76223 10.343658,7.59896 2.811592,1.7018 3.103073,2.68055 2.331198,7.82781 -0.730554,4.87167 -0.383376,6.33423 2.019817,8.50909 1.795319,1.62474 2.901992,4.34124 2.901992,7.12342 0,2.47344 0.941974,5.27892 2.093276,6.23441 1.151302,0.9555 2.093276,2.55959 2.093276,3.56464 0,1.94771 7.118548,7.59951 9.571744,7.59951 0.806036,0 3.035487,1.56996 4.954322,3.48878 1.918838,1.91884 4.530982,3.4888 5.804781,3.4888 1.273787,0 4.641129,2.62012 7.483002,5.8225 3.137318,3.53533 5.815679,5.42162 6.818317,4.80197 1.937257,-1.19731 2.158252,-5.6319 0.447095,-8.97181 -0.662298,-1.29273 -1.611696,-5.01935 -2.109771,-8.28137 -0.745974,-4.88568 -0.51168,-5.93095 1.329384,-5.93095 2.950766,0 7.461707,5.51931 7.520221,9.20128 0.06587,4.14652 5.058053,18.15438 8.392913,23.55031 1.5497,2.50749 2.81765,5.80437 2.81765,7.3264 0,1.52206 1.46736,5.52981 3.26082,8.90615 1.79345,3.37635 3.62308,8.84838 4.06588,12.16009 0.44278,3.31171 2.39549,9.27754 4.33937,13.25742 2.05123,4.1997 3.90793,11.04244 4.42473,16.30699 0.48972,4.98897 2.02992,11.58278 3.42265,14.65293 1.39272,3.07014 2.83426,8.57924 3.20342,12.24243 0.42633,4.23025 2.13268,8.76746 4.67676,12.43543 3.62538,5.22696 4.08039,7.1998 4.79441,20.78729 0.73966,14.07564 1.15371,15.74522 6.63662,26.76131 3.21625,6.46197 6.84513,15.14796 8.06418,19.30218 2.73223,9.31085 10.87633,21.95325 15.20131,23.5976 3.60776,1.37166 7.66961,6.49544 7.71677,9.73421 0.017,1.17239 1.2138,3.67064 2.65942,5.55164 2.23463,2.90763 2.95926,3.14543 4.83677,1.58724 1.82916,-1.51807 2.2932,-1.50627 2.70246,0.0688 0.27173,1.04586 1.57626,5.24156 2.89893,9.32379 1.89826,5.85863 2.04973,7.85013 0.71908,9.45347 -2.59771,3.13006 -0.54916,3.85388 3.46441,1.22408 4.30855,-2.82308 8.35282,-1.78229 7.19913,1.85266 -0.4403,1.38723 0.0334,3.66285 1.05286,5.05691 1.61473,2.20829 2.24084,2.29272 4.86222,0.65563 2.59573,-1.62108 3.63542,-1.52254 7.5729,0.71774 6.19343,3.5238 8.05285,6.14562 8.05285,11.35473 0,4.19463 1.61295,10.58906 4.20935,16.68772 0.65354,1.53507 1.98884,5.15968 2.96736,8.05469 0.97851,2.89501 3.24455,6.64035 5.03565,8.323 2.73383,2.5683 3.69199,2.7874 5.96953,1.36506 3.97457,-2.48215 5.18366,-2.12401 7.22778,2.14091 1.011,2.10936 2.94821,3.83632 4.30494,3.83767 1.35671,10e-4 3.23274,1.51079 4.16892,3.35429 0.9362,1.84349 2.95544,4.04143 4.48721,4.88431 1.53178,0.84287 4.4732,2.64462 6.53652,4.00402 2.06329,1.3593 6.33113,3.3817 9.48409,4.4941 3.15295,1.1124 6.69319,2.9832 7.86724,4.1572 2.82463,2.8246 4.095,2.6954 7.29769,-0.7422 l 2.68015,-2.8769 4.0029,6.3586 c 2.46556,3.9164 5.34283,6.6644 7.49172,7.1551 1.91884,0.4382 5.05876,1.6104 6.97758,2.6049 6.07866,3.1505 12.45884,3.7141 16.77554,1.4818 5.08919,-2.6317 6.94826,-2.6277 6.94826,0.015 0,1.1513 1.0544,2.0932 2.34308,2.0932 1.28869,0 4.40585,0.7459 6.927,1.6576 3.93043,1.4213 4.97572,1.303 7.33184,-0.8292 2.82184,-2.5538 10.33687,-2.1339 12.07255,0.6745 1.36624,2.2107 9.00451,1.5277 9.00451,-0.8051 0,-2.6629 2.24883,-2.7281 3.25946,-0.094 1.51998,3.9609 21.14739,3.502 24.65088,-0.5765 z m -36.58978,24.3209 c -0.42431,-0.4244 -9.57586,-1.0603 -20.33675,-1.4133 -10.76089,-0.3529 -22.60706,-1.3031 -26.3248,-2.1113 -3.71776,-0.8083 -9.58549,-1.9426 -13.03939,-2.5207 -3.4539,-0.5781 -9.60028,-2.7573 -13.65861,-4.8426 -4.05833,-2.0853 -7.8905,-3.4751 -8.51593,-3.0886 -0.6254,0.3865 -4.51789,-0.5329 -8.64996,-2.0433 -4.13204,-1.5103 -8.57393,-2.746 -9.87088,-2.746 -2.72599,0 -24.19958,-10.1529 -27.53369,-13.0182 -1.23451,-1.0608 -5.31858,-3.4325 -9.07575,-5.2702 -4.12142,-2.0159 -8.0595,-5.2871 -9.9277,-8.2465 -1.70308,-2.6979 -4.23115,-5.838 -5.61793,-6.97802 -3.88938,-3.19735 -10.41783,-14.13474 -10.41783,-17.45344 0,-1.63477 -1.56995,-4.44721 -3.4888,-6.24986 -1.91883,-1.80266 -3.48879,-4.69528 -3.48879,-6.42807 0,-1.90775 -1.65143,-4.32642 -4.18656,-6.13159 -2.3026,-1.63959 -4.18655,-4.19248 -4.18655,-5.67307 0,-1.48061 -2.1146,-5.04873 -4.69915,-7.92921 -2.58453,-2.88046 -5.12036,-6.59216 -5.63519,-8.24819 -0.51482,-1.65606 -1.81946,-3.35001 -2.89919,-3.76434 -1.07973,-0.41435 -2.37751,-2.9619 -2.8839,-5.66126 -0.5064,-2.69938 -1.80862,-5.64481 -2.89378,-6.54542 -1.08519,-0.90062 -3.02035,-3.90592 -4.30037,-6.67843 -1.28003,-2.77252 -3.78038,-6.81609 -5.55633,-8.98569 -1.77593,-2.16961 -3.24646,-4.99553 -3.26781,-6.27984 -0.0214,-1.2843 -1.90531,-4.80188 -4.18655,-7.81686 -2.28126,-3.01499 -4.14773,-6.23501 -4.14773,-7.15559 0,-0.9206 -0.94198,-2.45558 -2.09329,-3.41108 -1.44625,-1.20028 -2.09326,-1.2531 -2.09326,-0.17087 0,0.86152 -1.23926,1.56639 -2.75391,1.56639 -2.43076,0 -2.69789,0.79966 -2.27644,6.81451 0.26262,3.74797 0.86638,7.44373 1.34168,8.21279 0.47532,0.76907 0.16406,3.40679 -0.69172,5.8616 -1.28085,3.6743 -2.07966,4.29814 -4.5187,3.52901 -1.62955,-0.51386 -4.607,-0.87659 -6.61656,-0.80605 -4.87206,0.17101 -5.25797,-2.2689 -6.82474,-43.1491 -1.60623,-41.909 -3.36216,-57.52239 -8.31813,-73.96243 C 104.02382,765.78059 98.46651,741.96709 96.114156,723.875 95.033118,715.56076 93.131405,713.48355 84.348744,711.02385 75.18346,708.45698 55.461937,697.3929 48.298327,690.799 c -3.41215,-3.14077 -7.376774,-8.44173 -8.810278,-11.77988 -1.433516,-3.33815 -4.796197,-8.62769 -7.472646,-11.75452 -2.676436,-3.12681 -6.831463,-10.75731 -9.2334,-16.95664 -3.730344,-9.62799 -4.536297,-14.01862 -5.527309,-30.11103 C 15.961998,599.20538 14.744772,593.00498 9.7900152,582.17276 3.766418,569.00385 2.0548017,562.48196 2.0063913,552.51433 1.9802928,547.14159 1.0837867,536.56889 0.01415041,529.01945 -2.2283764,513.19191 -1.1791566,508.69882 6.2116014,502.4799 12.707442,497.014 19.648188,495.40666 26.43477,497.7966 c 6.767338,2.38318 7.662716,5.42404 2.897471,9.84033 -3.452803,3.19993 -3.501269,3.4692 -1.387214,7.70691 1.204821,2.41511 3.324959,4.99823 4.711407,5.74023 3.734432,1.99861 4.581777,5.58867 2.183105,9.24952 -1.168718,1.78369 -2.12494,5.74002 -2.12494,8.79187 0,3.05185 -0.584039,5.90977 -1.297845,6.35093 -0.713821,0.44116 -1.734517,4.40311 -2.268206,8.80434 -0.5337,4.40122 -1.4752,8.9769 -2.092229,10.16817 -2.03451,3.92797 -1.533435,43.43941 0.577661,45.55051 1.978119,1.97814 4.475048,-2.20326 13.264101,-22.21225 1.663582,-3.78728 3.146584,-5.20696 5.466603,-5.23319 4.255994,-0.0481 5.230331,-3.19337 2.350722,-7.58822 -2.291105,-3.49665 -2.238815,-3.7212 1.987231,-8.53441 5.262454,-5.9936 5.368332,-7.58033 0.792626,-11.87898 l -3.547601,-3.33281 3.198721,-2.4128 c 4.465056,-3.36799 4.281964,-12.12792 -0.462111,-22.10948 -2.006377,-4.22144 -4.719752,-10.47531 -6.029709,-13.89748 -1.309973,-3.42217 -3.590374,-7.06868 -5.067585,-8.10336 -3.652614,-2.55839 -3.378618,-4.0313 1.151845,-6.19196 4.933142,-2.35268 5.996846,-9.38361 1.996429,-13.196 -3.850541,-3.66956 -4.41733,-6.46989 -4.62691,-22.86023 -0.142634,-11.15494 -0.710932,-15.19996 -2.409611,-17.15133 -2.737461,-3.14469 -2.857768,-11.00289 -0.287672,-18.79035 2.361216,-7.15453 0.174021,-19.45192 -4.156786,-23.37124 -2.354195,-2.13054 -2.726226,-4.34875 -2.726226,-16.25518 0,-9.44057 0.617892,-14.76254 1.959683,-16.8788 3.573012,-5.63536 5.113553,-47.27096 3.182715,-86.01779 -0.436938,-8.76816 -0.23509,-16.98724 0.448546,-18.26463 0.683637,-1.27737 1.879051,-7.39538 2.656494,-13.59555 0.777428,-6.20018 2.770004,-16.7833 4.427934,-23.51804 2.318793,-9.41925 2.653256,-12.8233 1.449357,-14.75106 -0.860796,-1.37834 -1.565073,-3.22901 -1.565073,-4.11263 0,-1.60509 7.458217,-11.63069 16.823883,-22.61526 8.617251,-10.10678 13.8775,-18.13116 13.8775,-21.16976 0,-3.00649 12.980183,-17.44458 15.683076,-17.44458 2.374111,0 15.309368,-11.20443 22.555268,-19.53725 3.67084,-4.22143 8.02957,-8.83615 9.68614,-10.2549 1.65655,-1.41877 8.47748,-7.82431 15.15761,-14.23457 6.68015,-6.410254 14.21594,-12.691772 16.7462,-13.958916 2.53029,-1.267142 6.60945,-4.43833 9.0648,-7.047069 2.45536,-2.608738 5.66145,-4.743169 7.12463,-4.743169 1.46321,0 6.67608,-3.643207 11.58419,-8.096025 4.90807,-4.452816 10.80774,-9.372364 13.11034,-10.93233 5.58325,-3.782521 23.59399,-10.27751 28.49975,-10.27751 4.4267,0 11.2725,-4.743741 11.2725,-7.811173 0,-1.114599 1.72695,-2.680802 3.83768,-3.480462 2.11072,-0.799673 5.09364,-2.561389 6.6287,-3.914929 1.53507,-1.35354 5.49901,-3.232562 8.80875,-4.175598 3.30974,-0.943047 8.39704,-3.864214 11.30514,-6.491513 2.90809,-2.627286 10.87584,-7.610259 17.70609,-11.073264 10.73471,-5.4426013 13.59015,-6.2975789 21.05828,-6.3052407 4.75178,-0.00563 8.99396,-0.5821957 9.42705,-1.2829552 0.43308,-0.7007442 3.45306,-1.7030607 6.71107,-2.2273708 3.258,-0.5243101 7.31451,-1.83492477 9.01446,-2.91247253 1.69995,-1.07753487 5.94558,-1.95916687 9.43475,-1.95916687 8.99335,0 32.10007,3.8997177 38.92726,6.5697326 7.21262,2.820773 13.63515,2.7596079 29.22353,-0.2782656 15.10007,-2.9427137 22.16185,-2.0638452 31.12599,3.8737601 6.2425,4.134849 7.46174,4.426581 16.97396,4.061319 8.34472,-0.320425 11.10553,0.136202 14.86316,2.458581 2.53815,1.568673 5.52473,2.852117 6.63685,2.852117 1.11212,0 5.7058,1.883948 10.20817,4.186553 9.16573,4.687528 10.6303,4.87849 19.40871,2.530617 6.13251,-1.640195 6.2475,-1.605222 12.09659,3.679086 l 5.90521,5.335008 10.76262,-0.829943 10.76263,-0.829956 4.39807,5.472829 c 2.41896,3.010048 4.77667,7.365708 5.23936,9.679224 0.46273,2.313531 1.70758,4.925367 2.76638,5.804098 1.0588,0.878729 1.92511,2.836807 1.92511,4.351291 0,4.205685 5.09458,10.436629 9.40428,11.50194 2.11921,0.523862 5.54002,2.556755 7.60181,4.517541 2.06176,1.960799 4.96913,4.270952 6.46079,5.133661 1.49169,0.862723 6.3329,4.394498 10.75826,7.848405 8.04129,6.276073 18.23675,12.559656 20.37873,12.559656 2.71312,0 13.84288,9.21221 18.48679,15.30172 3.34861,4.39099 8.01848,8.19779 13.78338,11.23599 20.21982,10.65617 40.11804,25.58573 40.11804,30.10043 0,0.89751 0.94197,2.4136 2.09328,3.36912 1.416,1.17517 2.09327,4.33017 2.09327,9.75129 0,5.90096 0.73593,8.94962 2.79103,11.56225 1.53508,1.95152 2.79103,5.13908 2.79103,7.08343 0,1.94436 0.628,3.92332 1.39552,4.39768 0.76754,0.47436 1.39554,1.82533 1.39554,3.00216 0,1.17683 1.25595,3.73639 2.79103,5.68791 1.75941,2.23673 2.79389,5.67087 2.79881,9.29097 0.014,9.89619 2.81207,16.51201 12.04493,28.47326 8.93178,11.57117 17.21365,26.81098 17.29754,31.82982 0.0244,1.46074 0.96638,3.87489 2.09327,5.36477 1.1269,1.48988 2.04889,4.6612 2.04889,7.04736 0,2.38617 0.54316,4.93507 1.20698,5.66423 2.69359,2.95857 4.1128,19.46818 3.77286,43.88902 -0.36856,26.47746 -0.848,29.65777 -5.09458,33.79443 -3.59091,3.49792 -5.97739,16.46755 -4.20875,22.87302 0.7853,2.84412 1.15041,5.62001 0.81136,6.16862 -0.33906,0.54858 -0.68975,7.20133 -0.77931,14.78388 -0.15594,13.20112 -1.83888,23.44487 -4.31692,26.27632 -0.63813,0.72916 -1.16025,3.04703 -1.16025,5.15083 0,2.1038 -0.628,4.2132 -1.39552,4.68758 -0.76753,0.47436 -1.43295,4.12232 -1.47872,8.10658 -0.13075,11.39061 -6.13227,37.04382 -9.44011,40.35166 -0.90247,0.90246 -1.64084,3.99011 -1.64084,6.86144 0,2.87133 -0.6109,5.59816 -1.35759,6.05964 -0.74667,0.46148 -2.0475,3.48145 -2.89072,6.71107 -0.84322,3.22961 -2.74424,8.42524 -4.22448,11.54581 -3.45692,7.28775 -3.40023,11.00103 0.21941,14.37324 2.72856,2.54204 2.77101,2.92507 0.6782,6.11912 -1.22791,1.87402 -3.73279,4.09086 -5.56639,4.92631 -1.83361,0.83543 -5.61316,4.85712 -8.39899,8.93706 -2.78587,4.07994 -6.42189,9.14312 -8.08007,11.25151 -2.53693,3.2257 -3.03617,5.76986 -3.1492,16.04846 -0.0785,7.13742 -0.88586,13.574 -1.94229,15.48428 -1.52157,2.75136 -1.42051,4.40938 0.63783,10.46638 1.93574,5.69615 2.51879,12.82604 2.7957,34.18788 l 0.34989,26.99078 -7.60147,3.36172 c -4.18082,1.84896 -9.43046,3.36174 -11.66588,3.36174 -2.23542,0 -4.55815,0.78498 -5.16163,1.74439 -3.38059,5.37451 -5.95842,16.75336 -5.99952,26.48267 -0.0429,10.17187 0.16593,10.92166 3.68566,13.22788 2.98795,1.95776 3.85669,2.06843 4.361,0.55548 0.81473,-2.44419 4.97564,-6.59412 7.43291,-7.41326 1.37065,-0.45691 1.91885,-3.28093 1.91885,-9.88491 l 0,-9.24524 8.29261,-6.68686 c 12.84832,-10.36041 14.34749,-14.53198 20.37491,-56.69513 0.85967,-6.01358 1.66897,-22.15401 1.79844,-35.86762 l 0.23541,-24.93384 5.58206,-5.76968 c 3.07016,-3.17332 7.96911,-6.73839 10.88661,-7.92238 4.81618,-1.9545 5.2235,-2.52153 4.42454,-6.15917 -2.04692,-9.31953 9.03327,-0.49181 11.75495,9.36534 1.16238,4.2097 0.77113,6.14895 -2.7363,13.56294 -2.25091,4.75803 -4.10222,10.53489 -4.11399,12.83748 -0.0246,4.82168 -2.24512,11.58124 -8.02228,24.42156 -2.24467,4.98896 -6.45646,16.14743 -9.35956,24.79657 -2.9031,8.64914 -5.82733,16.065 -6.49831,16.47969 -0.67098,0.4147 -1.21995,2.25733 -1.21995,4.09474 0,1.83744 -0.57133,4.78329 -1.26961,6.54637 -0.69828,1.76305 -2.02315,7.91543 -2.94416,13.67195 -0.92102,5.75651 -2.31493,12.60606 -3.09759,15.22122 -2.28077,7.62091 -11.42926,19.77758 -24.53396,32.60123 -11.5386,11.29113 -12.64348,12.01133 -20.92698,13.64101 -11.38115,2.23911 -15.71035,7.08941 -18.32689,20.53289 -1.00733,5.17553 -2.27389,10.03802 -2.81456,10.80555 -0.54068,0.76754 -1.74898,4.95788 -2.6851,9.3119 -0.93612,4.35401 -2.58139,8.64618 -3.65616,9.53816 -2.3801,1.97531 -9.05811,13.18017 -9.05811,15.19839 0,0.79999 -1.5006,4.77006 -3.33467,8.82235 -4.19497,9.26866 -7.84705,18.44314 -12.65434,31.78938 -2.07348,5.75652 -5.29004,13.61532 -7.14788,17.46399 -1.85788,3.84871 -3.37794,9.29546 -3.37794,12.10391 0,3.65747 -1.34557,6.86904 -4.74246,11.31922 -2.60837,3.41714 -6.45042,9.27406 -8.53796,13.01543 -2.0875,3.74135 -5.50077,8.74626 -7.58501,11.122 -2.08424,2.37577 -6.09459,8.11412 -8.9119,12.75191 -2.81731,4.63778 -6.55163,9.36883 -8.29848,10.5134 -1.74685,1.14459 -5.03013,4.82598 -7.29619,8.18087 -5.02465,7.439 -26.33709,28.6655 -29.92489,29.80423 -3.5574,1.12908 -14.3346,13.02817 -13.3065,14.69169 0.45729,0.73988 -2.18426,3.2071 -5.87011,5.4827 -3.68583,2.27558 -7.97958,5.42244 -9.54164,6.99302 -1.56205,1.57057 -3.54097,2.8556 -4.39758,2.8556 -0.8566,0 -2.80346,2.1118 -4.32633,4.6928 -1.57669,2.6723 -4.3502,5.0898 -6.4415,5.6147 -2.01996,0.507 -7.48462,4.675 -12.14369,9.2623 -4.65907,4.5873 -9.52452,8.3405 -10.81208,8.3405 -1.2876,0 -4.68443,1.256 -7.54853,2.7911 -2.86412,1.535 -6.42865,2.791 -7.9212,2.791 -3.14579,0 -4.97624,2.1923 -2.90123,3.4747 1.63063,1.0078 1.94447,6.3047 0.37164,6.2726 -0.57564,-0.012 -1.97426,-0.608 -3.10803,-1.325 -1.416,-0.8954 -2.86043,-0.5804 -4.6135,1.0061 -2.12783,1.9257 -3.02184,2.0163 -5.37773,0.545 -2.44621,-1.5277 -3.24416,-1.3131 -5.94214,1.5981 -2.40557,2.5956 -5.57615,3.7285 -13.89948,4.9665 -11.4564,1.7039 -23.65175,2.111 -24.93052,0.8323 z" />
    <path
       style="fill:#070707"
       d="m 326.39363,931.70163 c -3.26912,-1.71435 -4.19802,-4.89983 -3.47027,-11.90055 0.14437,-1.38895 -0.52793,-3.47775 -1.49398,-4.64178 -1.42442,-1.71632 -1.37771,-2.35612 0.24705,-3.38421 1.10197,-0.69728 2.84858,-1.27742 3.8814,-1.28916 1.03282,-0.0117 3.69745,-1.31705 5.92143,-2.90065 4.61339,-3.28504 6.85366,-2.59447 6.85366,2.11259 0,3.79111 6.01645,6.09266 9.14323,3.49768 2.12025,-1.75967 4.81193,-0.68258 4.81193,1.92555 0,0.93541 1.25598,2.77615 2.79105,4.09051 1.53506,1.31437 2.79104,3.42565 2.79104,4.69174 0,1.26608 1.09797,3.10482 2.43996,4.0861 3.24159,2.37033 1.90276,3.42285 -5.42638,4.26597 -12.58221,1.4474 -25.13943,1.20333 -28.49012,-0.55379 z"
       id="path3556" />
    <path
       style="fill:#070707"
       d="m 369.38318,933.26412 c -3.8931,-1.57088 -1.65832,-5.84606 4.65305,-8.90133 5.74971,-2.78338 6.61419,-2.88019 8.53822,-0.95616 1.17744,1.17744 1.70989,2.83801 1.18322,3.69016 -0.84472,1.36681 -11.17703,7.26701 -12.22562,6.98139 -0.22246,-0.0606 -1.18945,-0.42692 -2.14887,-0.81406 z"
       id="path3554" />
    <path
       style="fill:#070707"
       d="m 303.44498,909.06904 c 0,-0.76754 0.94197,-1.39552 2.09327,-1.39552 1.15131,0 2.09329,0.62798 2.09329,1.39552 0,0.76754 -0.94198,1.39551 -2.09329,1.39551 -1.1513,0 -2.09327,-0.62797 -2.09327,-1.39551 z"
       id="path3552" />
    <path
       id="path3548"
       style="fill:#070707"
       d="m 386.91345,859.86103 c 0.31894,-1.65618 -0.42489,-2.42614 -2.34377,-2.42614 -3.20042,0 -4.97276,2.08427 -3.62572,4.26383 1.35821,2.19765 5.43399,0.94293 5.96949,-1.83769 z m -73.69985,41.53266 c -1.80267,-1.91883 -3.85613,-3.48878 -4.56326,-3.48878 -0.70715,0 -2.98883,-1.21273 -5.07041,-2.69495 -2.08158,-1.48222 -6.5744,-3.77199 -9.98405,-5.08837 -3.40964,-1.31638 -8.39729,-4.41469 -11.08366,-6.8851 -2.68637,-2.47043 -9.90818,-8.29339 -16.04846,-12.93995 -11.4727,-8.68177 -24.49103,-20.95031 -35.64263,-33.58977 -4.8676,-5.51706 -7.2687,-7.18222 -10.35649,-7.18222 -2.21086,0 -5.17038,-1.04133 -6.57673,-2.31407 -1.77928,-1.61021 -5.26994,-2.35301 -11.47654,-2.44215 -12.0129,-0.17252 -14.79434,-2.62835 -14.79434,-13.06243 0,-7.55294 0.0325,-7.6114 3.83768,-6.90242 8.21077,1.52977 10.82461,2.42082 11.30191,3.85278 1.08072,3.24211 6.2379,6.62751 11.33863,7.44314 6.54852,1.04716 17.95565,5.81418 21.42501,8.95347 1.40187,1.26853 4.75262,2.44739 7.4461,2.6197 2.69345,0.17232 5.72721,1.00214 6.74167,1.84407 2.18721,1.81523 14.90967,4.34584 21.18615,4.21414 2.43675,-0.051 4.82875,0.5515 5.31556,1.33919 0.48683,0.78768 4.72838,1.43216 9.42567,1.43216 8.01308,0 15.31798,1.52164 20.93542,4.36091 1.33545,0.67499 6.6733,1.83051 11.8619,2.56782 10.26439,1.45861 17.53704,3.62564 22.16654,6.60501 2.30103,1.48084 4.3906,1.58789 9.3409,0.4785 4.01407,-0.89956 10.68378,-0.99251 18.00107,-0.25083 12.55916,1.27299 18.49621,1.13751 22.45796,-0.51248 1.89287,-0.78833 2.72007,-0.30732 3.30268,1.92052 0.78108,2.98691 3.24277,4.18388 3.24277,1.57676 0,-0.76754 0.62798,-1.39552 1.39552,-1.39552 0.76753,0 1.39551,1.56997 1.39551,3.48879 0,1.91885 0.62799,3.48881 1.39552,3.48881 0.76753,0 1.39553,-1.17909 1.39553,-2.62017 0,-1.44108 0.95374,-3.41171 2.11945,-4.37916 1.725,-1.43162 2.57257,-1.34891 4.55415,0.44441 4.6902,4.24456 43.97555,0.7338 58.1742,-5.19877 6.34009,-2.64906 6.34077,-2.64911 6.25657,-0.4571 -0.0625,1.62851 -19.28196,18.09968 -21.80951,18.69091 -0.63224,0.1479 -3.44052,0.65077 -6.2406,1.11752 -3.89252,0.64883 -5.29382,1.65636 -5.9522,4.27957 -0.55633,2.21654 -2.21199,3.76947 -4.67754,4.3873 -2.09904,0.52597 -6.79289,3.04747 -10.43082,5.60333 -3.63792,2.55584 -7.40581,4.66695 -8.3731,4.69136 -0.96729,0.0244 -2.9777,0.96639 -4.46759,2.09328 -1.4899,1.1269 -3.77159,2.04889 -5.07044,2.04889 -1.29884,0 -2.68998,1.25598 -3.09141,2.79103 -0.48711,1.86274 -1.90351,2.79104 -4.25846,2.79104 -1.94074,0 -5.29644,0.71398 -7.45712,1.5866 -5.35787,2.16388 -15.08509,4.13031 -23.39081,4.72865 -3.79645,0.27349 -8.19234,0.8109 -9.76863,1.19422 -3.74936,0.91176 -14.03014,-6.08215 -14.03014,-9.54456 0,-2.42265 1.60143,-2.61382 23.72382,-2.83169 28.15833,-0.27732 32.79963,-1.06796 37.54708,-6.39616 2.13349,-2.39447 4.41787,-3.69424 5.65703,-3.21873 1.14317,0.43867 3.0366,-0.16052 4.2076,-1.33155 4.30691,-4.30691 1.47405,-7.63883 -4.58378,-5.39133 -2.0644,0.7659 -9.4053,2.17777 -16.3131,3.13745 -6.90782,0.9597 -13.38761,2.16948 -14.39954,2.68843 -3.01197,1.54465 -14.09272,-1.97663 -16.34676,-5.19472 -1.43088,-2.04285 -4.17804,-3.25307 -8.69856,-3.83198 -3.63397,-0.46539 -11.79,-1.80841 -18.12451,-2.98451 -11.33066,-2.10372 -11.60197,-2.08769 -16.74619,0.98961 -6.27583,3.75422 -11.50877,8.28684 -11.50877,9.96853 0,0.6729 2.155,2.12389 4.78889,3.22441 2.63388,1.1005 5.15301,2.59009 5.59807,3.3102 0.44504,0.72011 2.84293,1.74412 5.32862,2.27558 2.48568,0.53144 5.1474,1.46155 5.91494,2.06691 0.76754,0.60535 2.95906,1.31783 4.87006,1.58325 4.65257,0.64623 5.13301,4.43511 0.91299,7.20019 -2.61431,1.71296 -4.47471,1.93332 -7.93745,0.94023 -5.28922,-1.51692 -6.91646,-0.83679 -6.91646,2.89092 0,3.84836 -4.41097,3.43738 -8.37311,-0.78012 z" />
    <path
       style="fill:#070707"
       d="m 506.67247,852.629 c -1.42505,-2.17491 -1.93835,-4.89149 -1.41688,-7.49878 0.64861,-3.24305 0.13966,-4.57366 -2.46138,-6.43536 l -3.27903,-2.34698 3.72036,-3.06279 c 2.67713,-2.20397 3.99684,-4.94496 4.70641,-9.77517 0.8044,-5.47552 1.4046,-6.53533 3.25726,-5.75151 1.24912,0.5285 3.70539,1.27142 5.45834,1.65093 1.75296,0.37952 5.47423,3.48105 8.26949,6.8923 l 5.08229,6.20225 -2.55498,4.44128 c -3.91888,6.81211 -14.67537,19.09421 -16.72244,19.09421 -1.00367,0 -2.83043,-1.53469 -4.05944,-3.41038 z"
       id="path3546" />
    <path
       style="fill:#070707"
       d="m 437.84628,822.19808 c -0.62073,-0.95942 -1.77249,-3.00036 -2.55945,-4.53544 -1.93597,-3.77634 -7.0255,-4.25965 -12.69645,-1.20565 -4.24943,2.28848 -4.89344,2.32103 -6.86739,0.34705 -1.78732,-1.78729 -1.88218,-2.82795 -0.52864,-5.79866 2.0866,-4.5796 8.8052,-7.65187 11.6217,-5.31437 1.08724,0.90235 3.51894,1.23379 5.46615,0.74507 2.76515,-0.694 3.86337,-0.18978 5.18831,2.38207 0.92437,1.79435 3.26964,4.96667 5.21172,7.04963 2.94402,3.15765 3.23525,4.14361 1.75189,5.93097 -2.15275,2.59389 -5.05419,2.76977 -6.58784,0.39933 z"
       id="path3544" />
    <path
       style="fill:#070707"
       d="m 451.36983,821.06908 c 0,-0.81283 0.62798,-1.08976 1.39551,-0.6154 0.76755,0.47437 1.39552,1.13942 1.39552,1.47789 0,0.33846 -0.62797,0.61539 -1.39552,0.61539 -0.76753,0 -1.39551,-0.66506 -1.39551,-1.47788 z"
       id="path3542" />
    <path
       style="fill:#070707"
       d="m 365.54693,814.17614 c -0.53826,-0.87093 -0.75878,-1.6987 -0.49005,-1.83952 24.12047,-12.63899 33.11582,-16.23527 41.53893,-16.60707 9.97913,-0.44045 12.3342,1.4252 6.56814,5.20327 -2.10627,1.38009 -3.1784,3.10274 -2.70265,4.34252 0.81589,2.1262 -3.12389,5.98507 -6.19019,6.0631 -0.95941,0.0244 -1.74438,-0.89759 -1.74438,-2.0489 0,-2.4019 -2.30836,-2.84362 -3.06098,-0.58572 -0.35079,1.05238 -1.62661,0.99537 -4.22578,-0.1889 -3.31463,-1.51024 -4.20836,-1.28828 -8.14302,2.02254 -3.42394,2.88104 -4.84964,3.3622 -6.32774,2.13549 -1.83118,-1.51974 -3.77688,-1.16931 -11.94262,2.15107 -1.26556,0.51458 -2.74142,0.22305 -3.27966,-0.64788 z"
       id="path3540" />
    <path
       style="fill:#070707"
       d="m 349.22071,813.43234 c -0.40782,-0.40784 -2.14654,-1.0121 -3.86376,-1.34282 -3.50561,-0.67512 -7.02403,-3.2118 -7.02403,-5.06413 0,-1.77936 9.27102,-1.50128 12.92747,0.38778 1.71654,0.88682 4.02558,2.03066 5.13119,2.54186 4.08409,1.8883 3.16632,4.21883 -1.66134,4.21883 -2.62241,0 -5.10169,-0.33369 -5.50953,-0.74152 z"
       id="path3538" />
    <path
       style="fill:#070707"
       d="m 233.91236,805.36193 c -1.66885,-1.77643 -3.03429,-4.1789 -3.03429,-5.33883 0,-2.33744 5.64037,-8.17752 7.89788,-8.17752 0.791,0 2.5614,-1.24117 3.93424,-2.75813 3.11599,-3.44315 5.19879,-2.35088 4.0727,2.13584 -0.65021,2.59061 -0.18336,3.64314 1.97383,4.4499 2.81059,1.05112 2.80949,1.07507 -0.20928,4.54549 -2.66719,3.06628 -9.70054,8.3731 -11.09718,8.3731 -0.27698,0 -1.86903,-1.45343 -3.5379,-3.22985 z"
       id="path3536" />
    <path
       style="fill:#070707"
       d="m 278.79238,804.11311 c -0.64003,-0.99064 -1.80756,-3.05712 -2.59452,-4.5922 -2.33955,-4.56355 -7.02039,-4.27195 -9.90854,0.61728 -2.78437,4.71357 -4.88313,5.32798 -7.48615,2.19153 -2.34374,-2.82404 -0.87486,-5.98339 3.03983,-6.53824 2.45193,-0.3475 3.72716,-2.0037 5.31852,-6.90739 3.55622,-10.95822 6.69288,-12.94515 14.22903,-9.0135 2.58854,1.35045 8.45664,1.93839 18.80572,1.88419 l 15.04311,-0.0788 4.22029,5.37841 c 2.32118,2.95812 6.97517,8.38618 10.34223,12.06237 6.53324,7.13308 6.45521,7.6279 -0.78965,5.00813 -3.64142,-1.31676 -5.67166,-1.30082 -9.47473,0.0743 -4.35796,1.57586 -5.2559,1.44291 -9.0125,-1.33446 -3.37617,-2.4961 -4.56586,-2.75813 -6.23474,-1.37307 -1.47932,1.22774 -2.82482,1.30363 -4.75916,0.2684 -1.48321,-0.79381 -3.04355,-1.09646 -3.46744,-0.67257 -0.42389,0.42388 -2.86138,1.2468 -5.41668,1.82872 -2.5553,0.58193 -6.0061,1.49452 -7.66846,2.02802 -1.88344,0.60443 -3.46101,0.29119 -4.18616,-0.83119 z"
       id="path3534" />
    <path
       style="fill:#070707"
       d="m 288.09429,791.14781 c 0,-1.15129 -0.94197,-2.09328 -2.09329,-2.09328 -2.17918,0 -2.76866,1.65049 -1.16291,3.25621 1.60573,1.60574 3.2562,1.01627 3.2562,-1.16293 z"
       id="path3532" />
    <path
       style="fill:#070707"
       d="m 274.62662,788.40148 c 0.88261,-2.30002 -1.17386,-4.1365 -3.2176,-2.87339 -1.48106,0.91533 -0.39469,4.92196 1.33457,4.92196 0.6033,0 1.45066,-0.92186 1.88303,-2.04857 z"
       id="path3530" />
    <path
       style="fill:#070707"
       d="m 194.10703,789.97497 c -2.95453,-1.78851 -5.34402,-3.76971 -5.30995,-4.40269 0.1603,-2.97861 17.32253,-7.19888 23.23773,-5.71425 4.98338,1.25076 4.53397,5.00996 -0.59897,5.00996 -2.95331,0 -4.92079,1.16463 -7.07259,4.18654 -1.6396,2.30261 -3.40933,4.18333 -3.93269,4.17943 -0.5234,-0.005 -3.36898,-1.47049 -6.32353,-3.25899 z"
       id="path3528" />
    <path
       style="fill:#070707"
       d="m 231.22695,786.67054 c -2.4143,-0.88525 -2.19914,-4.59358 0.26652,-4.59358 2.53833,0 4.27604,2.67824 2.68204,4.13369 -0.6623,0.60472 -1.98913,0.81167 -2.94856,0.45989 z"
       id="path3526" />
    <path
       style="fill:#070707"
       d="m 211.34082,766.19937 c 0,-1.05732 0.95616,-2.71592 2.1248,-3.68582 1.1751,-0.97525 1.77321,-2.8711 1.33818,-4.24177 -0.60855,-1.91738 -0.17753,-2.31907 1.90427,-1.77468 1.47998,0.38704 3.1128,0.021 3.62849,-0.8134 1.7157,-2.77609 3.56415,-1.56665 3.54665,2.32057 -0.0126,2.83742 -1.28071,4.65607 -4.86473,6.97759 -5.57369,3.61032 -7.67766,3.94396 -7.67766,1.21751 z"
       id="path3524" />
    <path
       style="fill:#070707"
       d="m 447.1389,765.67962 c -0.0244,-1.34318 -0.9664,-3.66116 -2.09328,-5.15103 -1.1269,-1.48989 -2.04889,-4.57004 -2.04889,-6.84479 0,-5.08319 -8.95478,-14.19823 -15.72269,-16.00406 -4.18647,-1.11706 -4.48789,-1.59238 -4.17407,-6.58221 0.18604,-2.95803 0.96327,-6.00324 1.72717,-6.76714 1.70278,-1.70278 12.55085,5.74269 14.83556,10.18221 0.85265,1.65683 2.81908,4.40184 4.36983,6.10002 2.8617,3.13375 3.86878,7.02265 5.22654,20.1827 0.46641,4.52078 0.21369,7.32646 -0.65995,7.32646 -0.77872,0 -1.43581,-1.09897 -1.46022,-2.44216 z"
       id="path3522" />
    <path
       style="fill:#070707"
       d="m 261.11429,743.46763 c -2.38899,-2.38898 -0.81259,-12.06411 2.63278,-16.15868 1.9597,-2.329 3.21622,-5.13848 2.79227,-6.24329 -1.72232,-4.48832 0.93459,-8.83713 7.12076,-11.65527 3.57053,-1.62656 6.69821,-4.18543 7.41264,-6.06457 1.77934,-4.67997 7.32812,-5.61218 13.78831,-2.31645 6.57509,3.35438 10.09005,8.36123 9.01299,12.8385 -1.259,5.23356 -10.21409,13.74566 -18.23917,17.33687 -4.03905,1.80746 -7.74061,4.32057 -8.2257,5.58468 -0.48508,1.26412 -3.6693,3.49319 -7.07602,4.95348 -6.79059,2.91079 -7.83703,3.10657 -9.21886,1.72473 z"
       id="path3520" />
    <path
       style="fill:#070707"
       d="m 303.44498,654.95782 c 0,-0.83741 2.19794,-4.09035 4.88432,-7.22877 2.68636,-3.13842 4.8843,-6.84916 4.8843,-8.24607 0,-1.77179 1.04418,-2.53984 3.45295,-2.53984 3.65482,0 7.91555,-6.02707 6.69076,-9.46445 -0.35061,-0.98402 0.36353,-3.31686 1.587,-5.1841 2.48396,-3.79102 2.97528,-11.23755 0.82894,-12.56404 -1.68776,-1.04311 -1.87455,-6.27983 -0.224,-6.27983 0.64434,0 1.90563,-1.61114 2.80285,-3.58036 1.26625,-2.77912 2.48045,-3.48179 5.42586,-3.1399 3.30785,0.38394 3.9323,1.24593 4.86823,6.72026 0.5905,3.45391 1.29709,10.21008 1.57019,15.01373 0.31666,5.56946 1.32945,9.65423 2.79535,11.27403 3.09678,3.42189 2.98787,3.83632 -2.23666,8.51159 -3.28992,2.94406 -5.50233,3.86623 -8.0563,3.35805 -2.42647,-0.48283 -4.3372,0.20147 -6.14723,2.20153 -1.4445,1.59617 -3.23902,2.90211 -3.98782,2.90211 -0.74879,0 -4.42082,2.19795 -8.16003,4.88432 -6.84103,4.91477 -10.97871,6.18176 -10.97871,3.36174 z"
       id="path3518" />
    <path
       style="fill:#070707"
       d="m 283.90774,623.83702 c 0,-1.23452 0.48196,-2.24457 1.07101,-2.24457 0.58906,0 4.02014,-2.82593 7.62461,-6.27983 3.60445,-3.4539 6.81718,-6.27984 7.13939,-6.27984 0.32221,0 0.89318,1.60782 1.26882,3.5729 0.52778,2.76087 -0.14885,4.08662 -2.97721,5.83331 -2.01314,1.24322 -4.327,3.04769 -5.14196,4.00993 -0.81494,0.96225 -3.16987,2.17324 -5.2332,2.69109 -2.90694,0.7296 -3.75146,0.43627 -3.75146,-1.30299 z"
       id="path3504" />
    <path
       id="path3498"
       style="fill:#070707"
       d="m 239.77572,561.2625 c 1.1704,-1.85855 0.9884,-2.949 -0.78887,-4.72626 -4.18056,-4.18057 -10.41771,1.28313 -6.64885,5.82434 2.16988,2.61453 5.40003,2.13766 7.43772,-1.09808 z m 24.07684,27.23482 c 5.7787,-1.36017 15.67181,-6.64341 17.59165,-9.39448 2.01196,-2.8831 0.99172,-5.8035 -4.42242,-12.65891 -8.04483,-10.18643 -11.36885,-13.23185 -14.44233,-13.23185 -2.29707,0 -2.60969,0.67359 -1.91791,4.13246 0.93011,4.65051 -0.84879,6.47032 -5.71079,5.84213 -4.26804,-0.55145 -3.98388,2.33329 0.39375,3.99766 3.39701,1.29154 3.45292,1.49964 1.44563,5.38131 -2.86316,5.53673 -9.61842,10.95328 -16.07171,12.88674 -15.95313,4.77966 -33.54731,-10.68307 -31.383,-27.58111 0.41974,-3.27717 0.12449,-6.18996 -0.67771,-6.68575 -3.77417,-2.33258 -18.24966,10.67011 -18.24966,16.39287 0,3.254 12.11938,17.4014 15.95435,18.62413 11.96342,3.81434 45.36922,5.14778 57.49015,2.2948 z m -57.74493,9.75733 c -2.71247,-0.33661 -4.53542,-1.35573 -4.53542,-2.53553 0,-4.60518 -16.71603,-10.52982 -20.61007,-7.30478 -1.26546,1.04808 -2.45977,0.87994 -4.18655,-0.58945 -1.32878,-1.1307 -5.2419,-3.41893 -8.6958,-5.08493 -3.4539,-1.66599 -7.2218,-3.60815 -8.3731,-4.31589 -1.15131,-0.70774 -3.19225,-1.62638 -4.53544,-2.04145 -3.49742,-1.08074 -3.26621,-9.28499 0.34888,-12.38034 1.53507,-1.31438 2.79104,-3.39465 2.79104,-4.62287 0,-2.85581 12.56614,-15.00448 20.06437,-19.3978 5.66531,-3.31939 19.89221,-7.70228 25.00168,-7.70228 4.23981,0 2.00042,2.98172 -3.95797,5.26995 -3.03732,1.16645 -8.97628,4.68437 -13.19773,7.81765 -6.15775,4.57042 -7.13724,5.80212 -4.95381,6.22936 1.57881,0.30895 3.72357,-0.70491 5.108,-2.41461 1.31255,-1.62094 3.7505,-2.94717 5.41766,-2.94717 1.66716,0 7.21835,-1.74876 12.33597,-3.8861 7.86982,-3.28681 10.91886,-3.82464 19.77115,-3.48751 15.42302,0.58738 24.15579,1.31002 26.51483,2.19418 1.15129,0.43148 5.11914,1.19032 8.81744,1.68628 5.4351,0.72887 8.24414,2.24549 14.65293,7.91116 14.35811,12.69328 17.22301,15.70116 20.85058,21.89112 2.93598,5.00989 3.29275,6.59684 1.96204,8.72763 -2.20467,3.53023 -2.06864,4.03773 1.08224,4.03773 3.70134,0 5.03092,2.62709 2.57334,5.08468 -1.5393,1.53929 -7.36021,2.18324 -24.2378,2.68135 -12.21658,0.36053 -25.66588,0.91749 -29.88732,1.23769 -4.22145,0.32018 -8.90237,0.65267 -10.40206,0.73882 -1.49971,0.0861 -3.52754,0.82127 -4.50628,1.63357 -1.20914,1.0035 -3.04849,1.03455 -5.73822,0.0969 -2.89384,-1.00881 -4.87236,-0.87389 -7.35562,0.50162 -3.45291,1.9126 -4.10834,1.96512 -12.11896,0.97101 z" />
    <path
       style="fill:#070707"
       d="m 311.3864,582.81197 c -1.79057,-1.97855 -1.94274,-2.94344 -0.66568,-4.22051 1.27709,-1.27708 0.96491,-1.65556 -1.36547,-1.65556 -1.72402,0 -3.71445,-1.34805 -4.63615,-3.13993 -2.10435,-4.09093 -8.39782,-10.81526 -10.12236,-10.81526 -0.74165,0 -4.63222,-2.98291 -8.6457,-6.6287 -12.6459,-11.48734 -19.89017,-17.09509 -22.08402,-17.09509 -1.16756,0 -2.51096,-0.62798 -2.98532,-1.39551 -0.47436,-0.76755 -2.65847,-1.39552 -4.85358,-1.39552 -2.19512,0 -5.76894,-0.87916 -7.94187,-1.95367 -5.44587,-2.69299 -13.31397,-5.02392 -16.95838,-5.02392 -1.67246,0 -3.04083,-0.55959 -3.04083,-1.24353 0,-0.68392 5.46721,-2.25765 12.14937,-3.49716 6.68218,-1.23952 12.7976,-2.90187 13.58984,-3.69412 2.22235,-2.22234 -6.88423,-8.60054 -16.53656,-11.58212 -7.2156,-2.22886 -9.70188,-2.36882 -18.59171,-1.04664 -5.64422,0.83947 -12.71141,1.52632 -15.70491,1.52632 -2.99349,0 -5.80365,0.58404 -6.24481,1.29785 -0.44116,0.71381 -4.40312,1.70723 -8.80434,2.2076 -11.42033,1.29832 -12.82938,1.86338 -17.64376,7.07552 -3.80655,4.12102 -5.76252,4.92055 -16.63822,6.80112 -14.36091,2.4832 -14.88801,2.72411 -14.88801,6.80448 0,2.08797 -1.46987,3.82662 -4.53544,5.36482 -7.35855,3.69229 -9.0573,3.90793 -13.46484,1.70916 -4.74751,-2.36838 -4.60847,-3.33843 1.84214,-12.85115 2.2758,-3.35615 6.12896,-6.86959 8.72197,-7.95302 5.41376,-2.26201 6.41015,-5.61987 1.28598,-4.33378 -1.84753,0.4637 -4.44835,1.26106 -5.77961,1.7719 -2.13067,0.81762 -2.30143,0.29431 -1.42621,-4.37093 1.86249,-9.92798 12.65994,-20.05202 19.54324,-18.32444 1.95471,0.49061 5.79394,-0.29641 9.37664,-1.92216 3.33665,-1.5141 7.44834,-2.76671 9.13711,-2.78358 1.90547,-0.019 5.0502,-2.39907 8.28839,-6.27296 3.17488,-3.79819 6.34393,-6.21534 8.09368,-6.1734 1.58165,0.038 5.38768,-0.53029 8.45782,-1.26269 3.07013,-0.73241 16.25777,-1.20292 29.30586,-1.04564 18.61752,0.22444 24.88686,0.78852 29.1274,2.62073 2.972,1.28408 6.48919,2.33471 7.81599,2.33471 4.04081,0 11.59712,3.0291 17.48179,7.00795 3.07013,2.07583 8.094,5.12271 11.16413,6.77086 3.07015,1.64815 6.52405,3.53683 7.67535,4.19708 1.1513,0.66026 5.0231,2.50368 8.604,4.09648 6.54921,2.91314 10.03938,7.98953 6.84876,9.96146 -2.53654,1.56765 -0.24286,5.32303 4.19636,6.87054 4.40284,1.53485 5.00095,2.87219 2.43304,5.44011 -1.25853,1.25852 -1.01858,2.33013 1.0281,4.59169 2.52104,2.78571 2.53474,3.04879 0.24613,4.72225 -3.30365,2.4157 -3.0429,4.46584 0.69223,5.44261 2.30867,0.60372 2.709,1.22164 1.54533,2.38532 -1.14422,1.1442 -2.34384,1.15662 -4.41963,0.0458 -1.567,-0.83871 -4.6346,-1.52487 -6.81687,-1.52487 -2.1823,0 -5.43184,-1.02545 -7.22121,-2.27878 -2.7268,-1.90994 -3.45128,-1.96639 -4.4757,-0.34889 -1.88389,2.97455 -1.76196,3.21782 6.41033,12.79103 4.22144,4.94508 7.67535,10.3012 7.67535,11.90248 0,1.74051 2.10469,4.48025 5.23319,6.81219 7.06365,5.26515 7.30079,5.75052 5.22348,10.691 -2.2334,5.31167 -3.71938,5.88605 -6.70181,2.5905 z"
       id="path3494" />
    <path
       style="fill:#070707"
       d="m 290.11851,535.18211 c 1.06015,-1.71538 -5.90617,-7.08933 -9.19001,-7.08933 -3.6069,0 -3.2573,1.45258 1.23484,5.13059 4.12449,3.37697 6.68847,4.0083 7.95517,1.95874 z"
       id="path3492" />
    <path
       style="fill:#070707"
       d="m 276.68359,525.89729 c -0.33385,-1.62452 -11.77249,-6.95584 -16.15077,-7.52758 -0.19189,-0.0251 -0.34887,1.15082 -0.34887,2.61307 0,1.87589 1.74608,3.26205 5.93094,4.70835 8.1694,2.82334 11.1184,2.88089 10.5687,0.20616 z"
       id="path3490" />
    <path
       style="fill:#070707"
       d="m 329.26206,582.51795 c -0.47437,-0.76752 0.0795,-1.39551 1.2308,-1.39551 1.1513,0 2.48138,0.62799 2.95574,1.39551 0.47437,0.76754 -0.0795,1.39553 -1.23079,1.39553 -1.15131,0 -2.48139,-0.62799 -2.95575,-1.39553 z"
       id="path3488" />
    <path
       style="fill:#070707"
       d="m 603.60796,571.48054 c -1.46536,-1.46535 -3.82031,-2.88474 -5.23319,-3.15415 -1.41288,-0.26944 -2.76957,-1.89642 -3.01482,-3.61554 -0.43335,-3.03732 -1.4531,-3.48257 -8.5045,-3.71322 -2.23149,-0.0729 -4.1511,-1.52323 -5.68748,-4.29674 -1.41194,-2.54882 -3.64267,-4.34574 -5.7025,-4.5935 -1.86086,-0.2238 -4.63935,-0.95789 -6.17442,-1.6313 -1.53506,-0.6734 -4.93652,-1.59446 -7.5588,-2.0468 -2.62228,-0.45233 -6.81925,-2.38716 -9.32665,-4.29964 -2.50736,-1.91246 -5.91675,-3.47721 -7.57644,-3.47721 -1.65968,0 -4.68852,-1.1898 -6.73076,-2.644 -2.11904,-1.50889 -8.20268,-3.26517 -14.17059,-4.09088 -14.12958,-1.95497 -63.13062,-1.4552 -65.7151,0.67021 -1.07721,0.88588 -3.51282,1.82785 -5.41243,2.09327 -1.90082,0.2656 -4.18127,1.94729 -5.07157,3.74 -2.26104,4.5528 -3.37502,5.38027 -8.77917,6.52111 -4.09064,0.86354 -4.62055,0.67752 -3.84289,-1.34903 1.15308,-3.00491 -1.6597,-14.69754 -4.26091,-17.71234 -1.19308,-1.38279 -1.8124,-4.45412 -1.54771,-7.67534 0.36241,-4.41042 0.94004,-5.31927 3.23232,-5.08578 1.53506,0.15637 4.95723,-0.2986 7.60483,-1.01101 3.81958,-1.02779 5.34242,-0.81689 7.37339,1.02109 2.42034,2.19038 2.99361,1.89331 10.5369,-5.46015 4.60294,-4.48712 10.33848,-8.56511 13.55937,-9.64076 7.55127,-2.52184 30.53292,-2.00789 41.51877,0.92851 4.79591,1.2819 11.0633,2.80152 13.92753,3.3769 2.86422,0.57539 6.00412,1.67869 6.97759,2.45177 3.12977,2.48556 11.91292,3.39063 14.88595,1.53395 2.30186,-1.43754 3.22571,-1.32708 5.40638,0.6464 1.44656,1.30911 3.25617,2.38021 4.02136,2.38021 0.76519,0 2.87163,1.57579 4.68098,3.50176 2.0207,2.15094 4.21515,3.20804 5.68869,2.74036 1.33739,-0.42445 4.70699,0.80489 7.61464,2.77807 2.86864,1.9467 5.94484,3.53946 6.83602,3.53946 2.32574,0 9.13055,3.3113 9.14346,4.4493 0.0294,2.59117 8.48994,9.76011 12.9825,11.00056 6.26852,1.73084 12.7009,6.99526 15.567,12.74048 3.1814,6.37728 2.82913,8.31354 -1.3229,7.27145 -1.91712,-0.48117 -4.45094,-0.50444 -5.63072,-0.0517 -1.92733,0.73958 -1.92558,1.15807 0.0171,4.12308 1.99768,3.04883 1.94057,3.58168 -0.7504,7.00271 -3.45155,4.38793 -5.94105,4.65834 -9.5609,1.03848 z"
       id="path3484" />
    <path
       style="fill:#070707"
       d="m 588.13053,530.26842 c 0,-0.33847 -0.62798,-1.00351 -1.39551,-1.47788 -0.76753,-0.47437 -1.39552,-0.19744 -1.39552,0.6154 0,0.81284 0.62799,1.47787 1.39552,1.47787 0.76753,0 1.39551,-0.27692 1.39551,-0.61539 z"
       id="path3482" />
    <path
       style="fill:#070707"
       d="m 560.91794,521.11519 c -0.47435,-0.76754 -1.49045,-1.39551 -2.25797,-1.39551 -0.76755,0 -1.00742,0.62797 -0.53306,1.39551 0.47438,0.76754 1.49045,1.39552 2.258,1.39552 0.76753,0 1.00741,-0.62798 0.53303,-1.39552 z"
       id="path3480" />
    <path
       id="path3476"
       style="fill:#070707"
       d="m 459.77092,562.24923 c 0.9709,-1.16985 2.05265,-1.83962 2.4039,-1.48836 0.96777,0.96778 -0.99856,3.61537 -2.68512,3.61537 -0.92536,0 -0.8195,-0.80073 0.28122,-2.12701 z m 81.95867,2.56055 c -1.34319,-0.351 -2.44216,-1.24224 -2.44216,-1.98049 0,-0.77305 1.33157,-0.64949 3.13991,0.29135 5.23359,2.72296 5.04112,3.18886 -0.69775,1.68914 z m -101.48172,13.4428 c 1.65085,-3.08462 5.11875,-4.99403 6.52185,-3.59092 1.203,1.20299 -3.78696,6.46078 -6.13166,6.46078 -1.51128,0 -1.59531,-0.61805 -0.39019,-2.86986 z m -7.71752,9.84745 c 0.47435,-0.76754 1.13941,-1.39552 1.47787,-1.39552 0.33848,0 0.6154,0.62798 0.6154,1.39552 0,0.76754 -0.66504,1.39551 -1.47788,1.39551 -0.81284,0 -1.08977,-0.62797 -0.61539,-1.39551 z m 79.37126,2.46834 c 1.1704,-1.85856 0.9884,-2.949 -0.78886,-4.72626 -4.18057,-4.18057 -10.4177,1.28313 -6.64884,5.82434 2.16988,2.61453 5.40003,2.13766 7.4377,-1.09808 z m 17.61719,3.9608 c 0,-2.21737 -3.77162,-4.05926 -5.77576,-2.82064 -1.72808,1.06801 1.26153,4.76461 3.85335,4.76461 1.05733,0 1.92241,-0.87479 1.92241,-1.94397 z m -26.51483,21.44667 c 0,-0.78653 -1.41296,-1.98166 -3.13992,-2.65584 -4.07892,-1.59235 -11.25138,-9.28491 -14.311,-15.34876 -1.82397,-3.61487 -2.19858,-6.60365 -1.53516,-12.24821 0.73217,-6.22959 0.48792,-7.616 -1.47436,-8.369 -1.59717,-0.61289 -3.50574,0.45347 -5.94755,3.32297 -1.97759,2.32401 -5.17511,4.60589 -7.10559,5.07082 -1.93049,0.46495 -5.55982,2.96027 -8.06516,5.54514 l -4.55518,4.69974 2.99536,3.80797 c 3.61717,4.59849 17.95119,11.58508 30.4822,14.85743 11.37599,2.97074 12.65636,3.10404 12.65636,1.31774 z m 36.98121,0.99404 c 2.3026,-0.87787 4.94357,-1.60988 5.8688,-1.62668 2.06883,-0.0376 8.78414,-8.90852 8.78414,-11.60381 0,-4.30316 -4.80277,-11.66452 -10.19979,-15.63355 -7.80667,-5.74108 -9.33746,-5.4525 -9.33746,1.76036 0,7.81943 -3.7524,14.58868 -11.30646,20.39658 -3.37564,2.59533 -6.1375,5.42125 -6.1375,6.27984 0,3.41387 13.80176,3.67796 22.32827,0.42726 z m -37.05957,9.70657 c -1.1082,-1.01008 -4.78393,-2.62239 -8.16826,-3.58292 -3.38434,-0.96052 -7.78023,-2.88454 -9.76863,-4.27562 -2.24861,-1.57312 -7.36406,-2.84226 -13.53207,-3.35724 -5.45422,-0.45539 -12.59798,-1.77397 -15.875,-2.93017 -3.27705,-1.15622 -7.35192,-2.1022 -9.05531,-2.1022 -1.70338,0 -4.26838,-1.2943 -5.7,-2.87622 -2.22766,-2.46155 -2.30914,-3.06207 -0.56516,-4.16518 1.12078,-0.70893 2.50878,-1.29858 3.08442,-1.31033 0.57566,-0.0117 1.04664,-1.29943 1.04664,-2.86149 0,-1.56208 0.98709,-4.34661 2.19349,-6.18784 2.69432,-4.11205 16.49984,-14.69583 19.1693,-14.69583 1.06993,0 4.91236,-1.57761 8.53877,-3.50578 3.62641,-1.92817 7.1232,-3.17837 7.77069,-2.7782 1.46496,0.90539 5.5888,-3.07711 5.5888,-5.39725 0,-4.03777 16.705,-6.67895 22.52906,-3.56201 1.54459,0.82665 3.80626,1.12004 5.02593,0.65202 4.65838,-1.78759 -1.17051,-4.14822 -11.0259,-4.46538 -10.13549,-0.32618 -14.82096,-2.27297 -11.06191,-4.59619 1.07528,-0.66456 2.87734,-0.85439 4.00456,-0.42182 1.15205,0.44207 3.04076,-0.49832 4.31312,-2.14752 2.16026,-2.80009 2.64579,-2.84939 10.63669,-1.08012 11.35263,2.5136 19.12038,5.38552 19.05985,7.04688 -0.0276,0.75633 -1.97238,1.87327 -4.32179,2.48205 -2.34942,0.6088 -4.27168,1.56802 -4.27168,2.13161 0,1.12089 0.49423,1.41173 15.15602,8.91859 6.84984,3.50714 14.83387,9.59978 25.14511,19.18837 9.26484,8.61552 16.25053,14.04958 18.06124,14.04958 3.76688,0 2.63352,-3.57097 -1.89575,-5.97308 -4.09226,-2.17034 -22.01102,-26.12383 -19.5423,-26.12383 3.08435,0 15.62449,12.1854 21.32455,20.72131 4.61958,6.91789 5.3567,9.09003 5.30602,15.63574 -0.0526,6.79037 -0.35674,7.55857 -2.84988,7.19727 -1.53507,-0.22246 -4.22276,-1.12359 -5.97262,-2.00251 -2.59171,-1.30174 -4.79092,-0.99205 -11.8619,1.6704 -4.77418,1.79762 -11.30933,3.35029 -14.52257,3.45035 -3.5139,0.10948 -6.97951,1.21114 -8.69581,2.76436 -2.36446,2.13982 -3.2239,2.27507 -5.01433,0.78914 -1.65703,-1.37521 -2.96448,-1.4271 -5.60825,-0.22252 -1.89611,0.86394 -3.44746,2.21223 -3.44746,2.99621 0,2.18895 -5.02023,1.69064 -6.99997,-0.69482 -2.04766,-2.46725 -10.44997,-1.52532 -14.01116,1.57073 -1.79671,1.56203 -2.51951,1.57093 -4.18655,0.0514 z m -50.24446,11.98343 c -1.87253,-1.32309 -5.28855,-3.42005 -7.59116,-4.65987 -2.30259,-1.23983 -4.38722,-3.59676 -4.63249,-5.23762 -0.47948,-3.20786 1.13481,-3.75336 5.00031,-1.68975 1.33278,0.71151 3.50236,1.62616 4.82129,2.03256 2.1286,0.65588 7.40586,10.36107 6.25803,11.5089 -0.24825,0.24827 -1.98346,-0.63114 -3.85598,-1.95422 z" />
    <path
       style="fill:#070707"
       d="m 469.51156,989.84433 c 0,-0.76753 -0.628,-1.0074 -1.39553,-0.53304 -0.76752,0.47436 -1.39551,1.49045 -1.39551,2.25798 0,0.76755 0.62799,1.00741 1.39551,0.53306 0.76753,-0.47437 1.39553,-1.49045 1.39553,-2.258 z"
       id="path3474" />
    <path
       style="fill:#070707"
       d="m 140.07822,875.9148 c -1.45117,-4.16282 -5.49086,-7.36131 -5.49086,-4.34749 0,1.84129 5.68033,9.95832 6.43837,9.20026 0.30349,-0.3035 -0.12295,-2.48725 -0.94751,-4.85277 z"
       id="path3472" />
    <path
       style="fill:#070707"
       d="m 129.0053,319.57706 c 0,-1.08854 0.38117,-2.97249 0.84706,-4.18655 0.538,-1.40198 0.0911,-2.20742 -1.22464,-2.20742 -2.94729,0 -5.40811,3.42766 -4.3815,6.10295 1.07081,2.79051 4.75908,3.01603 4.75908,0.29102 z"
       id="path3127" />
  </g>
</svg>
